PathFileType        4      (X/Y/Z)      C:\Users\pc\Desktop\IMUTRC\Sujet_01\Sujet_01_velo_60.trc         
DataRate	CameraRate	NumFrames	NumMarkers	Units	OrigDataRate	OrigDataStartFrame	OrigNumFrames
60.0	60.0	4	64	mm	60.0	172	1370
Frame#	Time	pHipOrigin			pRightASI			pLeftASI			pRightCSI			pLeftCSI			pRightIschialTub			pLeftIschialTub			pSacrum			pL5SpinalProcess			pL3SpinalProcess			pT12SpinalProcess			pIJ			pT4SpinalProcess			pT8SpinalProcess			pPX			pC7SpinalProcess			pTopOfHead			pRightAuricularis			pLeftAuricularis			pBackOfHead			pRightAcromion			pLeftAcromion			pRightArmLatEpicondyle			pRightArmMedEpicondyle			pLeftArmLatEpicondyle			pLeftArmMedEpicondyle			pRightUlnarStyloid			pRightRadialStyloid			pRightOlecranon			pLeftUlnarStyloid			pLeftRadialStyloid			pLeftOlecranon			pRightTopOfHand			pRightPinky			pRightBallHand			pLeftTopOfHand			pLeftPinky			pLeftBallHand			pRightGreaterTrochanter			pRightKneeLatEpicondyle			pRightKneeMedEpicondyle			pRightPatella			pLeftGreaterTrochanter			pLeftKneeLatEpicondyle			pLeftKneeMedEpicondyle			pLeftPatella			pRightTibialTub			pRightLatMalleolus			pRightMedMalleolus			pLeftTibialTub			pLeftLatMalleolus			pLeftMedMalleolus			pRightHeelFoot			pRightFirstMetatarsal			pRightFifthMetatarsal			pRightPivotFoot			pRightHeelCenter			pRightToe			pLeftHeelFoot			pLeftFirstMetatarsal			pLeftFifthMetatarsal			pLeftPivotFoot			pLeftHeelCenter			pLeftToe			
		X1	Y1	Z1	X2	Y2	Z2	X3	Y3	Z3	X4	Y4	Z4	X5	Y5	Z5	X6	Y6	Z6	X7	Y7	Z7	X8	Y8	Z8	X9	Y9	Z9	X10	Y10	Z10	X11	Y11	Z11	X12	Y12	Z12	X13	Y13	Z13	X14	Y14	Z14	X15	Y15	Z15	X16	Y16	Z16	X17	Y17	Z17	X18	Y18	Z18	X19	Y19	Z19	X20	Y20	Z20	X21	Y21	Z21	X22	Y22	Z22	X23	Y23	Z23	X24	Y24	Z24	X25	Y25	Z25	X26	Y26	Z26	X27	Y27	Z27	X28	Y28	Z28	X29	Y29	Z29	X30	Y30	Z30	X31	Y31	Z31	X32	Y32	Z32	X33	Y33	Z33	X34	Y34	Z34	X35	Y35	Z35	X36	Y36	Z36	X37	Y37	Z37	X38	Y38	Z38	X39	Y39	Z39	X40	Y40	Z40	X41	Y41	Z41	X42	Y42	Z42	X43	Y43	Z43	X44	Y44	Z44	X45	Y45	Z45	X46	Y46	Z46	X47	Y47	Z47	X48	Y48	Z48	X49	Y49	Z49	X50	Y50	Z50	X51	Y51	Z51	X52	Y52	Z52	X53	Y53	Z53	X54	Y54	Z54	X55	Y55	Z55	X56	Y56	Z56	X57	Y57	Z57	X58	Y58	Z58	X59	Y59	Z59	X60	Y60	Z60	X61	Y61	Z61	X62	Y62	Z62	X63	Y63	Z63	X64	Y64	Z64	
172	2.85	0.0	1249.99075	7.653985854756496E-14	-2.263000000000016	1353.8371	129.8708000000001	49.78590000000001	1360.4375	-113.90410999999992	-56.76347000000001	1397.21118	96.74306000000009	-14.017999999999988	1402.68009	-103.72062999999991	-38.91095000000001	1181.53513	42.24258000000006	-17.538219999999992	1184.23815	-57.95782999999993	-62.98671	1246.28195	-13.51510999999993	-63.67818	1343.65362	-10.749229999999926	-69.02136	1449.82583	-11.00066999999992	-74.49027	1546.94606	-12.069309999999914	82.09645	1725.59698	15.023780000000116	-55.31767	1724.96837	-10.560649999999903	-71.41008	1643.50053	-12.320749999999908	64.74682	1613.45298	13.452250000000106	-45.95138	1772.3027	-1.131499999999897	27.281670000000002	2007.08849	-15.463799999999875	64.74682	1911.66551	36.96226000000012	-17.85251999999999	1913.80278	-65.68972999999988	-16.846740000000004	1914.7457	18.103960000000114	-67.51270000000001	1733.20316	170.47900000000013	4.1488300000000224	1742.82089	-180.1595899999999	-142.50586000000004	1455.3576	161.99277000000006	-131.63091	1453.0946	109.25240000000007	-47.58576999999997	1462.77519	-220.6420699999999	-61.47804999999998	1456.86626	-168.8446099999999	-46.20283000000001	1263.69444	141.8772500000001	-8.737680000000015	1283.05563	129.43077000000008	-156.71244000000002	1448.19144	143.88880000000006	86.18241000000002	1316.56053	-128.55071999999993	94.48007000000001	1343.08787	-94.4171999999999	-59.21504999999997	1449.95155	-214.23024999999993	78.89053999999997	1156.57932	195.37195000000006	5.217459999999977	1188.13554	185.12561000000008	-22.31565000000002	1237.04138	146.84327000000008	225.98525	1235.90989	-75.4960499999999	167.58739000000003	1261.80861	-124.96763999999992	110.44676000000001	1297.95368	-118.7444099999999	-27.59597000000002	1227.17221	145.52319000000008	199.14360999999997	981.76291	234.53435000000007	231.20270999999997	982.64297	175.50788000000009	237.92883999999998	1010.42752	215.23602000000008	41.67684000000001	1236.47564	-143.0087499999999	346.23832	1074.60859	-118.17865999999988	348.62704	1078.25453	-51.168839999999896	362.89648	1110.81652	-84.86232999999989	236.29444999999998	933.42281	216.55610000000007	-5.657490000000016	654.06858	128.29928000000004	23.57286999999999	651.86845	75.74749000000004	393.82409	1047.07548	-93.03425999999989	314.87069	676.82426	-124.84191999999992	326.37425	674.1841	-65.81544999999991	-78.6391	558.77132	32.87630000000003	57.203499999999984	458.06802	111.51539000000002	-2.2630000000000217	465.92564	176.19935000000004	42.99691999999998	448.51315	158.15825000000004	-54.249030000000005	533.81551	58.39786000000003	87.81679999999997	412.1795	203.85818000000003	260.11877	545.38193	-68.58133999999994	439.33545	532.55829	-18.858299999999915	440.84411	513.95144	-105.10356999999992	464.91987	520.42612	-59.71793999999991	302.6128	537.96434	-66.25547999999993	538.21578	514.95721	-57.32921999999991	
173	2.867	0.0	1249.99075	7.653985854756496E-14	-3.205910000000016	1354.02568	129.6822200000001	51.10598000000002	1360.18606	-113.58980999999991	-57.329220000000014	1397.52549	95.98873000000009	-12.697919999999987	1402.55437	-104.03493999999992	-39.47670000000001	1181.66085	41.991140000000065	-17.161049999999992	1184.23815	-58.02068999999993	-62.86099	1246.40767	-14.14371999999993	-63.36388	1343.71648	-11.503559999999926	-68.83278	1449.82583	-11.81786999999992	-74.55313	1546.88319	-12.949359999999915	80.90209	1726.35132	16.218130000000116	-56.26058	1724.96837	-11.000669999999902	-71.85011	1643.37481	-13.075089999999907	64.11821	1614.08159	14.269440000000106	-47.27146	1772.42842	-1.9486899999998972	26.527340000000002	2007.33993	-14.583749999999874	60.34654999999999	1912.23126	40.79678000000012	-15.27521999999999	1913.73992	-67.13553999999989	-19.801210000000005	1915.18572	16.532440000000115	-71.22150000000002	1733.9575	169.5360800000001	5.217460000000022	1743.32378	-179.8452899999999	-144.83172000000002	1455.60904	160.04408000000006	-133.76818	1453.53463	107.30371000000007	-42.87118999999997	1462.33517	-219.44770999999992	-57.83210999999998	1456.67768	-167.90169999999992	-45.32277000000001	1265.58027	140.99720000000008	-8.109070000000015	1285.50721	128.6135800000001	-158.84972000000002	1448.2543	141.94011000000006	87.37677000000001	1312.66315	-129.1793299999999	96.80592000000001	1338.93905	-95.1715399999999	-55.50624999999997	1449.76297	-213.0358899999999	80.46205999999997	1160.03667	195.56053000000006	6.6003999999999765	1191.02714	185.06275000000008	-21.372740000000018	1239.36724	146.3403800000001	224.35087	1226.92077	-76.7532699999999	166.39304000000004	1254.5796	-125.78483999999992	110.82392000000002	1293.11339	-119.24728999999991	-27.59597000000002	1228.17799	145.7117700000001	206.87550999999996	991.38064	238.1802800000001	238.80888999999996	992.2607	179.02809000000008	244.78068999999996	1020.92531	218.3162100000001	41.23681000000001	1234.96697	-142.9458899999999	338.00353	1058.95621	-119.49873999999988	340.958	1062.665	-52.42605999999989	356.54752	1094.4098	-86.30813999999988	242.70626999999996	942.72624	219.32199000000008	-5.908930000000016	669.90955	129.11647000000002	23.00711999999999	667.58369	76.43896000000004	386.53222	1031.98884	-94.29147999999991	312.35625	660.4804	-123.71041999999991	324.04839	658.34313	-64.74681999999991	-79.77059	574.86374	34.00779000000003	55.88341999999999	473.59468	112.14400000000003	-3.331630000000022	481.70375	177.01654000000002	41.80255999999998	464.10267	158.84972000000002	-55.38053000000001	549.7822	59.40363000000003	86.68529999999997	427.58044	204.36107000000004	256.34711	529.91813	-67.63841999999994	435.31234	515.27152	-17.412489999999913	436.88387	496.72753	-103.65776999999991	460.8339	502.95077	-58.20926999999991	298.77828	522.06051	-65.18683999999993	534.12982	496.72753	-55.56910999999991	
174	2.883	0.0	1249.99075	7.653985854756496E-14	-4.023100000000016	1354.15141	129.55650000000009	52.55179000000001	1359.87176	-113.21263999999991	-57.64353000000001	1397.77693	95.36012000000008	-11.189259999999988	1402.49151	-104.28637999999991	-40.10531000000001	1181.84944	41.67684000000006	-16.846739999999993	1184.23815	-58.08354999999993	-62.73527	1246.59625	-14.70946999999993	-62.86099	1343.8422	-12.195029999999925	-68.32989	1449.95155	-12.57219999999992	-74.23883	1546.94606	-13.829419999999915	80.14776	1727.04279	17.223910000000117	-56.63775	1725.03123	-11.566419999999903	-71.85011	1643.43767	-13.829419999999908	63.92962	1614.7102	15.023780000000107	-48.02579	1772.617	-2.9544699999998976	26.08731	2007.59138	-13.955139999999874	56.26057999999999	1912.85987	44.191270000000124	-12.06930999999999	1913.67706	-68.58133999999988	-22.127070000000003	1915.62575	14.583750000000114	-74.49027000000001	1735.02613	168.46745000000013	6.788990000000022	1743.82667	-179.6566999999999	-146.78041000000002	1456.17479	158.22111000000007	-135.52829	1454.35182	105.48074000000007	-37.653729999999975	1461.958	-218.31620999999993	-53.68327999999998	1456.55195	-167.0845099999999	-44.002690000000015	1267.90613	140.2428600000001	-7.166150000000016	1288.39881	127.73353000000009	-160.54696000000004	1448.63147	140.11714000000006	88.50827000000001	1308.45147	-129.80793999999992	99.19464000000002	1334.53878	-96.0515899999999	-51.42028999999997	1449.63725	-211.96724999999992	82.72505999999997	1164.24836	195.8748400000001	8.549089999999977	1194.61022	185.37705000000008	-19.926930000000016	1242.13312	146.0889400000001	222.27645	1217.42876	-78.1362099999999	164.63293000000002	1246.78484	-126.60202999999991	110.94964000000002	1287.83306	-119.7501799999999	-27.407390000000017	1229.24662	145.9632100000001	214.73313999999996	1001.62698	241.5747800000001	246.35220999999999	1002.38132	182.2968700000001	251.56966999999997	1031.92598	221.01923000000008	40.73392000000001	1233.58403	-142.9458899999999	328.51152	1043.1781	-120.8816799999999	332.0946	1046.82403	-53.871869999999895	349.06707	1077.68878	-87.87965999999989	249.30667999999997	952.59541	221.9621500000001	-4.6517100000000156	685.18477	130.49941000000004	23.88717999999999	682.92177	77.63332000000004	378.10884	1016.52504	-95.6744199999999	308.33315	644.01082	-123.39611999999991	320.15101	642.31358	-64.43250999999991	-79.07912	590.26468	35.89362000000003	56.763469999999984	488.93277	113.65267000000003	-2.1372700000000218	497.29328	178.77665000000002	42.87118999999998	479.56648	160.42124000000004	-54.626200000000004	565.18314	61.226600000000026	87.87965999999997	443.1071	205.80687000000003	250.5639	514.51719	-67.70127999999994	429.15197	497.35614	-16.909609999999915	430.72349	478.81215	-103.15487999999992	454.61067	484.65822	-57.64352999999991	292.86934	506.03095	-65.12397999999993	527.78086	477.4292	-54.751919999999906	
175	2.9	0.0	1249.99075	7.653985854756496E-14	-4.777440000000016	1354.21427	129.49364000000008	54.06045000000002	1359.55745	-112.77260999999991	-57.894970000000015	1398.09124	94.73151000000009	-9.554869999999987	1402.49151	-104.47495999999991	-40.796780000000005	1182.10088	41.36253000000006	-16.595299999999995	1184.23815	-58.209269999999925	-62.60954	1246.8477	-15.27521999999993	-62.3581	1344.03079	-12.823639999999925	-67.76415	1450.07727	-13.32652999999992	-73.73594	1547.00892	-14.583749999999915	79.70773	1727.60854	18.103960000000118	-56.76347	1725.15696	-12.132169999999903	-71.66153	1643.43767	-14.646609999999908	63.92962	1615.27595	15.778110000000106	-48.40296	1772.74272	-3.9602399999998976	25.58442	2007.90568	-13.452249999999873	52.17461999999999	1913.67706	47.082880000000124	-8.73767999999999	1913.55134	-69.77569999999989	-24.13862	1916.00292	12.572200000000114	-77.31902000000001	1736.22049	167.2730900000001	8.549090000000021	1744.2667	-179.5309799999999	-148.66624000000002	1456.99198	156.83817000000005	-137.09982	1455.23187	104.16066000000006	-32.43626999999997	1461.58083	-217.0589899999999	-49.34587999999998	1456.36337	-166.14158999999992	-42.368310000000015	1270.54629	139.61425000000008	-5.908930000000016	1291.66758	127.04206000000009	-162.18135000000004	1449.19722	138.85992000000005	89.32546000000002	1304.11406	-130.43654999999993	101.33191000000001	1329.88706	-96.8687799999999	-47.20859999999997	1449.57439	-210.7728899999999	85.42807999999997	1168.90007	196.0005600000001	11.000669999999976	1198.5076	185.5027800000001	-18.10396000000002	1245.33903	145.7746300000001	219.63629	1207.87389	-79.5191499999999	162.49565000000004	1239.05294	-127.41921999999991	110.82392000000002	1282.55274	-120.3159299999999	-27.281670000000016	1230.31526	146.1518000000001	222.71647999999996	1012.8791	245.03213000000008	254.08410999999998	1013.57057	185.5656400000001	258.48438	1043.99529	223.7222600000001	40.23103000000001	1232.38967	-142.8201599999999	318.3909	1027.96574	-122.2646199999999	322.47687	1031.48595	-55.31766999999989	340.76942	1061.47064	-89.45118999999988	256.34711	963.65895	224.60231000000007	-1.4458000000000162	700.14569	132.63668000000007	26.71591999999999	698.00841	79.51915000000004	368.93114	1001.56412	-97.0573699999999	303.36713	628.23271	-123.45897999999991	315.24786	626.78691	-64.49536999999991	-76.3761	605.16273	38.34520000000003	59.655079999999984	503.95654	115.97852000000005	0.8800499999999778	512.50564	181.22823000000002	45.88851999999998	494.65312	162.80996000000002	-51.86032000000001	580.14406	63.678180000000026	90.95984999999997	458.2566	208.13273000000004	243.52347	499.87058	-68.26702999999995	421.60865	479.75506	-16.90960999999992	423.18017	461.39965	-103.15487999999992	447.06735	466.74284	-57.58066999999991	285.70319	490.75573	-65.56400999999994	520.11182	458.38233	-54.43761999999991	
